# xmcd
# 
# Track frame offsets:
#   150
#   19091
#   34683
#   48903
#   64652
#   79253
#   99014
#   111095
#   123291
#   142145
#   155909
#   179047
#   196016
#   209899
#   222921
# 
# Disc length: 3235 seconds
# 
# Revision: 0
# Processed by: cddbd v1.5.2PL0 Copyright (c) Steve Scherf et al.
# Submitted via: VOLTOCDX V1.0.24 
# 
DISCID=da0ca10f
DTITLE=Various Artist - Chartbuster Essential Vol. 1 Disc 10
DYEAR=2007
DGENRE=Karaoke
TTITLE0=Chattahoochee - Alan Jackson
TTITLE1=Two Of A Kind (Working On A Full House) - Garth Brooks
TTITLE2=Love Can Build A Bridge - Judds, The
TTITLE3=Blame It On Your Heart - Patti Loveless
TTITLE4=Hard Workin' Man - Brooks and Dunn
TTITLE5=If The Devil Danced (In Empty Pockets) - Joe Diffe
TTITLE6=Walk Away Joe - Trisha Yearwood
TTITLE7=Any Man Of Mine - Shania Twain
TTITLE8=No One Else On Earth - Wynonna Judd
TTITLE9=Trashy Woman - Confederate Railroad, The
TTITLE10=Be My Baby Tonight - John Michael Montgomery
TTITLE11=Dumas Walker - Kentucky Headhunters, The
TTITLE12=Why Haven't I Heard From You? - Reba Mcentire
TTITLE13=Bubba Shot The Jukebox - Mark Chesnutt
TTITLE14=When You Say Nothing At All - Keith Whitley
EXTD=
EXTT0=
EXTT1=
EXTT2=
EXTT3=
EXTT4=
EXTT5=
EXTT6=
EXTT7=
EXTT8=
EXTT9=
EXTT10=
EXTT11=
EXTT12=
EXTT13=
EXTT14=
PLAYORDER=
